<svg id="visual" viewBox="0 0 540 960" width="540" height="960" xmlns="http://www.w3.org/2000/svg" xmlns:xlink="http://www.w3.org/1999/xlink" version="1.1"><rect x="0" y="0" width="540" height="960" fill="#001220"></rect><defs><linearGradient id="grad1_0" x1="0%" y1="100%" x2="100%" y2="0%"><stop offset="30%" stop-color="#3cfa79" stop-opacity="1"></stop><stop offset="70%" stop-color="#3cfa79" stop-opacity="1"></stop></linearGradient></defs><defs><linearGradient id="grad1_1" x1="0%" y1="100%" x2="100%" y2="0%"><stop offset="30%" stop-color="#3cfa79" stop-opacity="1"></stop><stop offset="70%" stop-color="#00d98e" stop-opacity="1"></stop></linearGradient></defs><defs><linearGradient id="grad1_2" x1="0%" y1="100%" x2="100%" y2="0%"><stop offset="30%" stop-color="#00b698" stop-opacity="1"></stop><stop offset="70%" stop-color="#00d98e" stop-opacity="1"></stop></linearGradient></defs><defs><linearGradient id="grad1_3" x1="0%" y1="100%" x2="100%" y2="0%"><stop offset="30%" stop-color="#00b698" stop-opacity="1"></stop><stop offset="70%" stop-color="#009295" stop-opacity="1"></stop></linearGradient></defs><defs><linearGradient id="grad1_4" x1="0%" y1="100%" x2="100%" y2="0%"><stop offset="30%" stop-color="#006f85" stop-opacity="1"></stop><stop offset="70%" stop-color="#009295" stop-opacity="1"></stop></linearGradient></defs><defs><linearGradient id="grad1_5" x1="0%" y1="100%" x2="100%" y2="0%"><stop offset="30%" stop-color="#006f85" stop-opacity="1"></stop><stop offset="70%" stop-color="#004d69" stop-opacity="1"></stop></linearGradient></defs><defs><linearGradient id="grad1_6" x1="0%" y1="100%" x2="100%" y2="0%"><stop offset="30%" stop-color="#002e46" stop-opacity="1"></stop><stop offset="70%" stop-color="#004d69" stop-opacity="1"></stop></linearGradient></defs><defs><linearGradient id="grad1_7" x1="0%" y1="100%" x2="100%" y2="0%"><stop offset="30%" stop-color="#002e46" stop-opacity="1"></stop><stop offset="70%" stop-color="#001220" stop-opacity="1"></stop></linearGradient></defs><defs><linearGradient id="grad2_0" x1="0%" y1="100%" x2="100%" y2="0%"><stop offset="30%" stop-color="#3cfa79" stop-opacity="1"></stop><stop offset="70%" stop-color="#3cfa79" stop-opacity="1"></stop></linearGradient></defs><defs><linearGradient id="grad2_1" x1="0%" y1="100%" x2="100%" y2="0%"><stop offset="30%" stop-color="#00d98e" stop-opacity="1"></stop><stop offset="70%" stop-color="#3cfa79" stop-opacity="1"></stop></linearGradient></defs><defs><linearGradient id="grad2_2" x1="0%" y1="100%" x2="100%" y2="0%"><stop offset="30%" stop-color="#00d98e" stop-opacity="1"></stop><stop offset="70%" stop-color="#00b698" stop-opacity="1"></stop></linearGradient></defs><defs><linearGradient id="grad2_3" x1="0%" y1="100%" x2="100%" y2="0%"><stop offset="30%" stop-color="#009295" stop-opacity="1"></stop><stop offset="70%" stop-color="#00b698" stop-opacity="1"></stop></linearGradient></defs><defs><linearGradient id="grad2_4" x1="0%" y1="100%" x2="100%" y2="0%"><stop offset="30%" stop-color="#009295" stop-opacity="1"></stop><stop offset="70%" stop-color="#006f85" stop-opacity="1"></stop></linearGradient></defs><defs><linearGradient id="grad2_5" x1="0%" y1="100%" x2="100%" y2="0%"><stop offset="30%" stop-color="#004d69" stop-opacity="1"></stop><stop offset="70%" stop-color="#006f85" stop-opacity="1"></stop></linearGradient></defs><defs><linearGradient id="grad2_6" x1="0%" y1="100%" x2="100%" y2="0%"><stop offset="30%" stop-color="#004d69" stop-opacity="1"></stop><stop offset="70%" stop-color="#002e46" stop-opacity="1"></stop></linearGradient></defs><defs><linearGradient id="grad2_7" x1="0%" y1="100%" x2="100%" y2="0%"><stop offset="30%" stop-color="#001220" stop-opacity="1"></stop><stop offset="70%" stop-color="#002e46" stop-opacity="1"></stop></linearGradient></defs><g transform="translate(540, 960)"><path d="M-324 0C-323.6 -46.4 -323.1 -92.9 -299.3 -124C-275.5 -155.1 -228.4 -170.8 -195.9 -195.9C-163.3 -220.9 -145.4 -255.2 -115.2 -278.1C-85 -301 -42.5 -312.5 0 -324L0 0Z" fill="#002033"></path><path d="M-283.5 0C-283.1 -40.6 -282.7 -81.3 -261.9 -108.5C-241.1 -135.7 -199.9 -149.5 -171.4 -171.4C-142.9 -193.3 -127.2 -223.3 -100.8 -243.3C-74.4 -263.4 -37.2 -273.4 0 -283.5L0 0Z" fill="#003d58"></path><path d="M-243 0C-242.7 -34.8 -242.3 -69.7 -224.5 -93C-206.7 -116.3 -171.3 -128.1 -146.9 -146.9C-122.5 -165.7 -109 -191.4 -86.4 -208.6C-63.7 -225.7 -31.9 -234.4 0 -243L0 0Z" fill="#005e78"></path><path d="M-202.5 0C-202.2 -29 -202 -58.1 -187.1 -77.5C-172.2 -96.9 -142.8 -106.8 -122.4 -122.4C-102.1 -138.1 -90.9 -159.5 -72 -173.8C-53.1 -188.1 -26.6 -195.3 0 -202.5L0 0Z" fill="#00818e"></path><path d="M-162 0C-161.8 -23.2 -161.6 -46.4 -149.7 -62C-137.8 -77.5 -114.2 -85.4 -97.9 -97.9C-81.7 -110.4 -72.7 -127.6 -57.6 -139C-42.5 -150.5 -21.2 -156.2 0 -162L0 0Z" fill="#00a498"></path><path d="M-121.5 0C-121.3 -17.4 -121.2 -34.8 -112.3 -46.5C-103.3 -58.2 -85.7 -64.1 -73.5 -73.5C-61.2 -82.8 -54.5 -95.7 -43.2 -104.3C-31.9 -112.9 -15.9 -117.2 0 -121.5L0 0Z" fill="#00c794"></path><path d="M-81 0C-80.9 -11.6 -80.8 -23.2 -74.8 -31C-68.9 -38.8 -57.1 -42.7 -49 -49C-40.8 -55.2 -36.3 -63.8 -28.8 -69.5C-21.2 -75.2 -10.6 -78.1 0 -81L0 0Z" fill="#00ea85"></path><path d="M-40.5 0C-40.4 -5.8 -40.4 -11.6 -37.4 -15.5C-34.4 -19.4 -28.6 -21.4 -24.5 -24.5C-20.4 -27.6 -18.2 -31.9 -14.4 -34.8C-10.6 -37.6 -5.3 -39.1 0 -40.5L0 0Z" fill="#3cfa79"></path></g><g transform="translate(0, 0)"><path d="M324 0C318.9 40.7 313.9 81.5 299.3 124C284.8 166.5 260.7 210.9 222.7 222.7C184.7 234.6 132.8 214 93.4 225.4C53.9 236.9 27 280.4 0 324L0 0Z" fill="#002033"></path><path d="M283.5 0C279.1 35.6 274.7 71.3 261.9 108.5C249.2 145.7 228.1 184.5 194.9 194.9C161.7 205.3 116.2 187.2 81.7 197.2C47.2 207.3 23.6 245.4 0 283.5L0 0Z" fill="#003d58"></path><path d="M243 0C239.2 30.5 235.4 61.1 224.5 93C213.6 124.9 195.5 158.2 167.1 167.1C138.6 175.9 99.6 160.5 70 169.1C40.4 177.7 20.2 210.3 0 243L0 0Z" fill="#005e78"></path><path d="M202.5 0C199.3 25.5 196.2 50.9 187.1 77.5C178 104.1 163 131.8 139.2 139.2C115.5 146.6 83 133.7 58.4 140.9C33.7 148.1 16.9 175.3 0 202.5L0 0Z" fill="#00818e"></path><path d="M162 0C159.5 20.4 156.9 40.7 149.7 62C142.4 83.3 130.4 105.4 111.4 111.4C92.4 117.3 66.4 107 46.7 112.7C27 118.4 13.5 140.2 0 162L0 0Z" fill="#00a498"></path><path d="M121.5 0C119.6 15.3 117.7 30.5 112.3 46.5C106.8 62.4 97.8 79.1 83.5 83.5C69.3 88 49.8 80.2 35 84.5C20.2 88.8 10.1 105.2 0 121.5L0 0Z" fill="#00c794"></path><path d="M81 0C79.7 10.2 78.5 20.4 74.8 31C71.2 41.6 65.2 52.7 55.7 55.7C46.2 58.6 33.2 53.5 23.3 56.4C13.5 59.2 6.7 70.1 0 81L0 0Z" fill="#00ea85"></path><path d="M40.5 0C39.9 5.1 39.2 10.2 37.4 15.5C35.6 20.8 32.6 26.4 27.8 27.8C23.1 29.3 16.6 26.7 11.7 28.2C6.7 29.6 3.4 35.1 0 40.5L0 0Z" fill="#3cfa79"></path></g></svg>